<svg xmlns="http://www.w3.org/2000/svg" xmlns:xlink="http://www.w3.org/1999/xlink" width="60" zoomAndPan="magnify" viewBox="0 0 45 44.999999" height="60" preserveAspectRatio="xMidYMid meet" version="1.0"><defs><g/><clipPath id="id1"><path d="M 0.449219 0.449219 L 44.699219 0.449219 L 44.699219 44.699219 L 0.449219 44.699219 Z M 0.449219 0.449219 " clip-rule="nonzero"/></clipPath></defs><g clip-path="url(#id1)"><path fill="#072f3c" d="M 22.574219 0.449219 C 10.355469 0.449219 0.449219 10.355469 0.449219 22.574219 C 0.449219 34.796875 10.355469 44.699219 22.574219 44.699219 C 34.796875 44.699219 44.699219 34.796875 44.699219 22.574219 C 44.699219 10.355469 34.796875 0.449219 22.574219 0.449219 " fill-opacity="1" fill-rule="nonzero"/></g><g fill="#ffffff" fill-opacity="1"><g transform="translate(3.958298, 21.258073)"><g><path d="M 2.589844 -4.035156 L 4.027344 -4.035156 L 4.027344 -5.042969 L 0.0351562 -5.042969 L 0.0351562 -4.035156 L 1.476562 -4.035156 L 1.476562 0 L 2.589844 0 Z M 2.589844 -4.035156 "/></g></g></g><g fill="#ffffff" fill-opacity="1"><g transform="translate(9.507131, 21.258073)"><g><path d="M 3.367188 -1.007812 L 1.558594 -1.007812 L 1.558594 -2.023438 L 3.292969 -2.023438 L 3.292969 -3.035156 L 1.558594 -3.035156 L 1.558594 -4.035156 L 3.367188 -4.035156 L 3.367188 -5.042969 L 0.445312 -5.042969 L 0.445312 0 L 3.367188 0 Z M 3.367188 -1.007812 "/></g></g></g><g fill="#ffffff" fill-opacity="1"><g transform="translate(14.803743, 21.258073)"><g><path d="M 1.558594 -1.800781 L 1.566406 -1.800781 L 2.765625 0 L 4.175781 0 L 2.730469 -1.855469 C 3.367188 -2.011719 3.878906 -2.574219 3.878906 -3.425781 C 3.878906 -4.382812 3.152344 -5.042969 2.335938 -5.042969 L 0.445312 -5.042969 L 0.445312 0 L 1.558594 0 Z M 2.152344 -4.167969 C 2.476562 -4.167969 2.820312 -3.886719 2.820312 -3.425781 C 2.820312 -2.945312 2.476562 -2.679688 2.152344 -2.679688 L 1.558594 -2.679688 L 1.558594 -4.167969 Z M 2.152344 -4.167969 "/></g></g></g><g fill="#ffffff" fill-opacity="1"><g transform="translate(20.374827, 21.258073)"><g><path d="M 3.191406 -1.929688 L 1.914062 -1.929688 L 2.550781 -3.722656 Z M 5.074219 0 L 3.027344 -5.042969 L 2.085938 -5.042969 L 0.0351562 0 L 1.230469 0 L 1.59375 -1.015625 L 3.515625 -1.015625 L 3.878906 0 Z M 5.074219 0 "/></g></g></g><g fill="#ffffff" fill-opacity="1"><g transform="translate(26.969625, 21.258073)"><g><path d="M 1.558594 -1.800781 L 2.335938 -1.800781 C 3.152344 -1.800781 3.878906 -2.402344 3.878906 -3.425781 C 3.878906 -4.382812 3.152344 -5.042969 2.335938 -5.042969 L 0.445312 -5.042969 L 0.445312 0 L 1.558594 0 Z M 2.152344 -4.167969 C 2.476562 -4.167969 2.820312 -3.886719 2.820312 -3.425781 C 2.820312 -2.945312 2.476562 -2.679688 2.152344 -2.679688 L 1.558594 -2.679688 L 1.558594 -4.167969 Z M 2.152344 -4.167969 "/></g></g></g><g fill="#ffffff" fill-opacity="1"><g transform="translate(32.444271, 21.258073)"><g><path d="M 1.558594 0 L 1.558594 -5.042969 L 0.445312 -5.042969 L 0.445312 0 Z M 1.558594 0 "/></g></g></g><g fill="#ffffff" fill-opacity="1"><g transform="translate(35.930832, 21.258073)"><g><path d="M 3.191406 -1.929688 L 1.914062 -1.929688 L 2.550781 -3.722656 Z M 5.074219 0 L 3.027344 -5.042969 L 2.085938 -5.042969 L 0.0351562 0 L 1.230469 0 L 1.59375 -1.015625 L 3.515625 -1.015625 L 3.878906 0 Z M 5.074219 0 "/></g></g></g><g fill="#ffffff" fill-opacity="1"><g transform="translate(13.073897, 29.260109)"><g><path d="M 0.101562 -3.164062 L 0.949219 -3.164062 L 0.949219 -0.0117188 L 1.308594 -0.0117188 L 1.308594 -3.164062 L 2.152344 -3.164062 L 2.152344 -3.496094 L 0.101562 -3.496094 Z M 0.101562 -3.164062 "/></g></g></g><g fill="#ffffff" fill-opacity="1"><g transform="translate(16.355371, 29.260109)"><g><path d="M 3.457031 -1.753906 C 3.457031 -1.355469 3.3125 -1.015625 3.035156 -0.738281 C 2.753906 -0.457031 2.414062 -0.316406 2.019531 -0.316406 C 1.625 -0.316406 1.285156 -0.457031 1.011719 -0.738281 C 0.726562 -1.015625 0.589844 -1.355469 0.589844 -1.753906 C 0.589844 -2.144531 0.726562 -2.480469 1.011719 -2.761719 C 1.285156 -3.039062 1.625 -3.183594 2.019531 -3.183594 C 2.414062 -3.183594 2.753906 -3.039062 3.035156 -2.761719 C 3.3125 -2.480469 3.457031 -2.144531 3.457031 -1.753906 Z M 3.816406 -1.753906 C 3.816406 -2 3.761719 -2.230469 3.671875 -2.449219 C 3.578125 -2.667969 3.449219 -2.855469 3.285156 -3.019531 C 3.121094 -3.179688 2.933594 -3.308594 2.71875 -3.398438 C 2.496094 -3.492188 2.265625 -3.542969 2.019531 -3.542969 C 1.773438 -3.542969 1.539062 -3.492188 1.324219 -3.398438 C 1.109375 -3.308594 0.917969 -3.179688 0.753906 -3.019531 C 0.589844 -2.855469 0.460938 -2.667969 0.371094 -2.449219 C 0.277344 -2.230469 0.230469 -2 0.230469 -1.753906 C 0.230469 -1.507812 0.277344 -1.273438 0.371094 -1.054688 C 0.460938 -0.835938 0.589844 -0.644531 0.753906 -0.480469 C 0.917969 -0.316406 1.109375 -0.191406 1.324219 -0.0976562 C 1.539062 -0.00390625 1.773438 0.0429688 2.019531 0.0429688 C 2.265625 0.0429688 2.496094 -0.00390625 2.71875 -0.0976562 C 2.933594 -0.191406 3.121094 -0.316406 3.285156 -0.480469 C 3.449219 -0.644531 3.578125 -0.835938 3.671875 -1.054688 C 3.761719 -1.273438 3.816406 -1.507812 3.816406 -1.753906 Z M 3.816406 -1.753906 "/></g></g></g><g fill="#ffffff" fill-opacity="1"><g transform="translate(21.42627, 29.260109)"><g><path d="M 0.742188 0 L 0.742188 -3.488281 L 0.382812 -3.488281 L 0.382812 0 Z M 0.742188 0 "/></g></g></g><g fill="#ffffff" fill-opacity="1"><g transform="translate(23.579731, 29.260109)"><g><path d="M 1.636719 0.210938 L 3.214844 -3.488281 L 2.824219 -3.488281 L 1.636719 -0.675781 L 0.441406 -3.488281 L 0.0507812 -3.488281 Z M 1.636719 0.210938 "/></g></g></g><g fill="#ffffff" fill-opacity="1"><g transform="translate(27.871282, 29.260109)"><g><path d="M 3.457031 -1.753906 C 3.457031 -1.355469 3.3125 -1.015625 3.035156 -0.738281 C 2.753906 -0.457031 2.414062 -0.316406 2.019531 -0.316406 C 1.625 -0.316406 1.285156 -0.457031 1.011719 -0.738281 C 0.726562 -1.015625 0.589844 -1.355469 0.589844 -1.753906 C 0.589844 -2.144531 0.726562 -2.480469 1.011719 -2.761719 C 1.285156 -3.039062 1.625 -3.183594 2.019531 -3.183594 C 2.414062 -3.183594 2.753906 -3.039062 3.035156 -2.761719 C 3.3125 -2.480469 3.457031 -2.144531 3.457031 -1.753906 Z M 3.816406 -1.753906 C 3.816406 -2 3.761719 -2.230469 3.671875 -2.449219 C 3.578125 -2.667969 3.449219 -2.855469 3.285156 -3.019531 C 3.121094 -3.179688 2.933594 -3.308594 2.71875 -3.398438 C 2.496094 -3.492188 2.265625 -3.542969 2.019531 -3.542969 C 1.773438 -3.542969 1.539062 -3.492188 1.324219 -3.398438 C 1.109375 -3.308594 0.917969 -3.179688 0.753906 -3.019531 C 0.589844 -2.855469 0.460938 -2.667969 0.371094 -2.449219 C 0.277344 -2.230469 0.230469 -2 0.230469 -1.753906 C 0.230469 -1.507812 0.277344 -1.273438 0.371094 -1.054688 C 0.460938 -0.835938 0.589844 -0.644531 0.753906 -0.480469 C 0.917969 -0.316406 1.109375 -0.191406 1.324219 -0.0976562 C 1.539062 -0.00390625 1.773438 0.0429688 2.019531 0.0429688 C 2.265625 0.0429688 2.496094 -0.00390625 2.71875 -0.0976562 C 2.933594 -0.191406 3.121094 -0.316406 3.285156 -0.480469 C 3.449219 -0.644531 3.578125 -0.835938 3.671875 -1.054688 C 3.761719 -1.273438 3.816406 -1.507812 3.816406 -1.753906 Z M 3.816406 -1.753906 "/></g></g></g></svg>