<svg xmlns="http://www.w3.org/2000/svg" xmlns:xlink="http://www.w3.org/1999/xlink" width="150" zoomAndPan="magnify" viewBox="0 0 112.5 112.499997" height="150" preserveAspectRatio="xMidYMid meet" version="1.0"><defs><g/><clipPath id="id1"><path d="M 0 0 L 110.25 0 L 110.25 110.25 L 0 110.25 Z M 0 0 " clip-rule="nonzero"/></clipPath></defs><g clip-path="url(#id1)"><path fill="#072f3c" d="M 55.125 0 C 24.679688 0 0 24.679688 0 55.125 C 0 85.570312 24.679688 110.25 55.125 110.25 C 85.570312 110.25 110.25 85.570312 110.25 55.125 C 110.25 24.679688 85.570312 0 55.125 0 " fill-opacity="1" fill-rule="nonzero"/></g><g fill="#ffffff" fill-opacity="1"><g transform="translate(16.010082, 54.586191)"><g><path d="M 5.617188 -8.757812 L 8.742188 -8.757812 L 8.742188 -10.945312 L 0.0820312 -10.945312 L 0.0820312 -8.757812 L 3.203125 -8.757812 L 3.203125 0 L 5.617188 0 Z M 5.617188 -8.757812 "/></g></g></g><g fill="#ffffff" fill-opacity="1"><g transform="translate(28.051965, 54.586191)"><g><path d="M 7.308594 -2.1875 L 3.378906 -2.1875 L 3.378906 -4.394531 L 7.148438 -4.394531 L 7.148438 -6.585938 L 3.378906 -6.585938 L 3.378906 -8.757812 L 7.308594 -8.757812 L 7.308594 -10.945312 L 0.964844 -10.945312 L 0.964844 0 L 7.308594 0 Z M 7.308594 -2.1875 "/></g></g></g><g fill="#ffffff" fill-opacity="1"><g transform="translate(39.546515, 54.586191)"><g><path d="M 3.378906 -3.910156 L 3.398438 -3.910156 L 6.003906 0 L 9.0625 0 L 5.925781 -4.023438 C 7.308594 -4.363281 8.417969 -5.585938 8.417969 -7.4375 C 8.417969 -9.515625 6.84375 -10.945312 5.070312 -10.945312 L 0.964844 -10.945312 L 0.964844 0 L 3.378906 0 Z M 4.667969 -9.046875 C 5.378906 -9.046875 6.117188 -8.4375 6.117188 -7.4375 C 6.117188 -6.390625 5.378906 -5.8125 4.667969 -5.8125 L 3.378906 -5.8125 L 3.378906 -9.046875 Z M 4.667969 -9.046875 "/></g></g></g><g fill="#ffffff" fill-opacity="1"><g transform="translate(51.636692, 54.586191)"><g><path d="M 6.921875 -4.1875 L 4.152344 -4.1875 L 5.539062 -8.082031 Z M 11.011719 0 L 6.566406 -10.945312 L 4.523438 -10.945312 L 0.0820312 0 L 2.671875 0 L 3.460938 -2.207031 L 7.628906 -2.207031 L 8.417969 0 Z M 11.011719 0 "/></g></g></g><g fill="#ffffff" fill-opacity="1"><g transform="translate(65.948399, 54.586191)"><g><path d="M 3.378906 -3.910156 L 5.070312 -3.910156 C 6.84375 -3.910156 8.417969 -5.214844 8.417969 -7.4375 C 8.417969 -9.515625 6.84375 -10.945312 5.070312 -10.945312 L 0.964844 -10.945312 L 0.964844 0 L 3.378906 0 Z M 4.667969 -9.046875 C 5.378906 -9.046875 6.117188 -8.4375 6.117188 -7.4375 C 6.117188 -6.390625 5.378906 -5.8125 4.667969 -5.8125 L 3.378906 -5.8125 L 3.378906 -9.046875 Z M 4.667969 -9.046875 "/></g></g></g><g fill="#ffffff" fill-opacity="1"><g transform="translate(77.829301, 54.586191)"><g><path d="M 3.378906 0 L 3.378906 -10.945312 L 0.964844 -10.945312 L 0.964844 0 Z M 3.378906 0 "/></g></g></g><g fill="#ffffff" fill-opacity="1"><g transform="translate(85.395928, 54.586191)"><g><path d="M 6.921875 -4.1875 L 4.152344 -4.1875 L 5.539062 -8.082031 Z M 11.011719 0 L 6.566406 -10.945312 L 4.523438 -10.945312 L 0.0820312 0 L 2.671875 0 L 3.460938 -2.207031 L 7.628906 -2.207031 L 8.417969 0 Z M 11.011719 0 "/></g></g></g><g fill="#ffffff" fill-opacity="1"><g transform="translate(39.814264, 70.663126)"><g><path d="M 0.179688 -5.519531 L 1.65625 -5.519531 L 1.65625 -0.0195312 L 2.28125 -0.0195312 L 2.28125 -5.519531 L 3.757812 -5.519531 L 3.757812 -6.101562 L 0.179688 -6.101562 Z M 0.179688 -5.519531 "/></g></g></g><g fill="#ffffff" fill-opacity="1"><g transform="translate(45.539, 70.663126)"><g><path d="M 6.027344 -3.058594 C 6.027344 -2.363281 5.777344 -1.769531 5.296875 -1.289062 C 4.804688 -0.796875 4.214844 -0.554688 3.523438 -0.554688 C 2.835938 -0.554688 2.246094 -0.796875 1.761719 -1.289062 C 1.269531 -1.769531 1.027344 -2.363281 1.027344 -3.058594 C 1.027344 -3.738281 1.269531 -4.328125 1.761719 -4.820312 C 2.246094 -5.304688 2.835938 -5.554688 3.523438 -5.554688 C 4.214844 -5.554688 4.804688 -5.304688 5.296875 -4.820312 C 5.777344 -4.328125 6.027344 -3.738281 6.027344 -3.058594 Z M 6.65625 -3.058594 C 6.65625 -3.488281 6.566406 -3.890625 6.40625 -4.277344 C 6.242188 -4.652344 6.019531 -4.980469 5.734375 -5.269531 C 5.449219 -5.546875 5.117188 -5.769531 4.742188 -5.929688 C 4.355469 -6.089844 3.953125 -6.179688 3.523438 -6.179688 C 3.09375 -6.179688 2.683594 -6.089844 2.308594 -5.929688 C 1.933594 -5.769531 1.601562 -5.546875 1.316406 -5.269531 C 1.027344 -4.980469 0.804688 -4.652344 0.644531 -4.277344 C 0.484375 -3.890625 0.402344 -3.488281 0.402344 -3.058594 C 0.402344 -2.628906 0.484375 -2.21875 0.644531 -1.84375 C 0.804688 -1.457031 1.027344 -1.128906 1.316406 -0.839844 C 1.601562 -0.554688 1.933594 -0.332031 2.308594 -0.171875 C 2.683594 -0.0078125 3.09375 0.0703125 3.523438 0.0703125 C 3.953125 0.0703125 4.355469 -0.0078125 4.742188 -0.171875 C 5.117188 -0.332031 5.449219 -0.554688 5.734375 -0.839844 C 6.019531 -1.128906 6.242188 -1.457031 6.40625 -1.84375 C 6.566406 -2.21875 6.65625 -2.628906 6.65625 -3.058594 Z M 6.65625 -3.058594 "/></g></g></g><g fill="#ffffff" fill-opacity="1"><g transform="translate(54.385503, 70.663126)"><g><path d="M 1.296875 0 L 1.296875 -6.082031 L 0.671875 -6.082031 L 0.671875 0 Z M 1.296875 0 "/></g></g></g><g fill="#ffffff" fill-opacity="1"><g transform="translate(58.14236, 70.663126)"><g><path d="M 2.851562 0.367188 L 5.609375 -6.082031 L 4.929688 -6.082031 L 2.851562 -1.179688 L 0.769531 -6.082031 L 0.0898438 -6.082031 Z M 2.851562 0.367188 "/></g></g></g><g fill="#ffffff" fill-opacity="1"><g transform="translate(65.62924, 70.663126)"><g><path d="M 6.027344 -3.058594 C 6.027344 -2.363281 5.777344 -1.769531 5.296875 -1.289062 C 4.804688 -0.796875 4.214844 -0.554688 3.523438 -0.554688 C 2.835938 -0.554688 2.246094 -0.796875 1.761719 -1.289062 C 1.269531 -1.769531 1.027344 -2.363281 1.027344 -3.058594 C 1.027344 -3.738281 1.269531 -4.328125 1.761719 -4.820312 C 2.246094 -5.304688 2.835938 -5.554688 3.523438 -5.554688 C 4.214844 -5.554688 4.804688 -5.304688 5.296875 -4.820312 C 5.777344 -4.328125 6.027344 -3.738281 6.027344 -3.058594 Z M 6.65625 -3.058594 C 6.65625 -3.488281 6.566406 -3.890625 6.40625 -4.277344 C 6.242188 -4.652344 6.019531 -4.980469 5.734375 -5.269531 C 5.449219 -5.546875 5.117188 -5.769531 4.742188 -5.929688 C 4.355469 -6.089844 3.953125 -6.179688 3.523438 -6.179688 C 3.09375 -6.179688 2.683594 -6.089844 2.308594 -5.929688 C 1.933594 -5.769531 1.601562 -5.546875 1.316406 -5.269531 C 1.027344 -4.980469 0.804688 -4.652344 0.644531 -4.277344 C 0.484375 -3.890625 0.402344 -3.488281 0.402344 -3.058594 C 0.402344 -2.628906 0.484375 -2.21875 0.644531 -1.84375 C 0.804688 -1.457031 1.027344 -1.128906 1.316406 -0.839844 C 1.601562 -0.554688 1.933594 -0.332031 2.308594 -0.171875 C 2.683594 -0.0078125 3.09375 0.0703125 3.523438 0.0703125 C 3.953125 0.0703125 4.355469 -0.0078125 4.742188 -0.171875 C 5.117188 -0.332031 5.449219 -0.554688 5.734375 -0.839844 C 6.019531 -1.128906 6.242188 -1.457031 6.40625 -1.84375 C 6.566406 -2.21875 6.65625 -2.628906 6.65625 -3.058594 Z M 6.65625 -3.058594 "/></g></g></g></svg>